{
	"asset":{
		"generator":"Khronos glTF Blender I/O v3.6.27",
		"version":"2.0"
	},
	"scene":0,
	"scenes":[
		{
			"name":"Scene",
			"nodes":[
				0,
				1
			]
		}
	],
	"nodes":[
		{
			"mesh":0,
			"name":"Cylinder"
		},
		{
			"mesh":1,
			"name":"Cylinder.001",
			"scale":[
				1.0054234266281128,
				1.0054234266281128,
				1.0054234266281128
			],
			"translation":[
				-0.05507349222898483,
				-0.009196922183036804,
				0.014525577425956726
			]
		}
	],
	"materials":[
		{
			"doubleSided":true,
			"name":"Mushroombody",
			"pbrMetallicRoughness":{
				"baseColorTexture":{
					"index":0
				},
				"metallicFactor":0,
				"roughnessFactor":0.5
			}
		},
		{
			"doubleSided":true,
			"name":"Mushroom Top",
			"pbrMetallicRoughness":{
				"baseColorTexture":{
					"index":1
				},
				"metallicFactor":0,
				"roughnessFactor":0.5
			}
		}
	],
	"meshes":[
		{
			"name":"Cylinder",
			"primitives":[
				{
					"attributes":{
						"POSITION":0,
						"NORMAL":1,
						"TEXCOORD_0":2
					},
					"indices":3,
					"material":0
				}
			]
		},
		{
			"name":"Cylinder.001",
			"primitives":[
				{
					"attributes":{
						"POSITION":4,
						"NORMAL":5,
						"TEXCOORD_0":6,
						"TANGENT":7
					},
					"indices":8,
					"material":1
				}
			]
		}
	],
	"textures":[
		{
			"sampler":0,
			"source":0
		},
		{
			"sampler":0,
			"source":1
		}
	],
	"images":[
		{
			"mimeType":"image/png",
			"name":"FUNGI.BMP",
			"uri":"../../../DE_ADJACENT/Textures/Foliage/FUNGI.BMP"
		},
		{
			"mimeType":"image/png",
			"name":"COFFEE.BMP",
			"uri":"../../../DE_ADJACENT/Textures/Foliage/COFFEE.BMP"
		}
	],
	"accessors":[
		{
			"bufferView":0,
			"componentType":5126,
			"count":289,
			"max":[
				2.7816789150238037,
				2.708286762237549,
				2.74603009223938
			],
			"min":[
				-2.781679630279541,
				-1,
				-2.7935965061187744
			],
			"type":"VEC3"
		},
		{
			"bufferView":1,
			"componentType":5126,
			"count":289,
			"type":"VEC3"
		},
		{
			"bufferView":2,
			"componentType":5126,
			"count":289,
			"type":"VEC2"
		},
		{
			"bufferView":3,
			"componentType":5123,
			"count":453,
			"type":"SCALAR"
		},
		{
			"bufferView":4,
			"componentType":5126,
			"count":165,
			"max":[
				4.2518415451049805,
				2.905109167098999,
				4.290170192718506
			],
			"min":[
				-4.284599781036377,
				2.3389785289764404,
				-4.2098565101623535
			],
			"type":"VEC3"
		},
		{
			"bufferView":5,
			"componentType":5126,
			"count":165,
			"type":"VEC3"
		},
		{
			"bufferView":6,
			"componentType":5126,
			"count":165,
			"type":"VEC2"
		},
		{
			"bufferView":7,
			"componentType":5126,
			"count":165,
			"type":"VEC4"
		},
		{
			"bufferView":8,
			"componentType":5123,
			"count":231,
			"type":"SCALAR"
		}
	],
	"bufferViews":[
		{
			"buffer":0,
			"byteLength":3468,
			"byteOffset":0,
			"target":34962
		},
		{
			"buffer":0,
			"byteLength":3468,
			"byteOffset":3468,
			"target":34962
		},
		{
			"buffer":0,
			"byteLength":2312,
			"byteOffset":6936,
			"target":34962
		},
		{
			"buffer":0,
			"byteLength":906,
			"byteOffset":9248,
			"target":34963
		},
		{
			"buffer":0,
			"byteLength":1980,
			"byteOffset":10156,
			"target":34962
		},
		{
			"buffer":0,
			"byteLength":1980,
			"byteOffset":12136,
			"target":34962
		},
		{
			"buffer":0,
			"byteLength":1320,
			"byteOffset":14116,
			"target":34962
		},
		{
			"buffer":0,
			"byteLength":2640,
			"byteOffset":15436,
			"target":34962
		},
		{
			"buffer":0,
			"byteLength":462,
			"byteOffset":18076,
			"target":34963
		}
	],
	"samplers":[
		{
			"magFilter":9729,
			"minFilter":9987
		}
	],
	"buffers":[
		{
			"byteLength":18540,
			"uri":"mushroom_platform-63c8af28240de31089cafd6f241f98d9.bin"
		}
	]
}
