{
	"asset":{
		"generator":"Khronos glTF Blender I/O v3.6.27",
		"version":"2.0"
	},
	"extensionsUsed":[
		"KHR_materials_specular",
		"KHR_materials_ior"
	],
	"scene":0,
	"scenes":[
		{
			"name":"Scene",
			"nodes":[
				0,
				1,
				2,
				3,
				4,
				5,
				6,
				7,
				8
			]
		}
	],
	"nodes":[
		{
			"mesh":0,
			"name":"Street Light",
			"scale":[
				0.19378352165222168,
				3.7821602821350098,
				0.19378352165222168
			],
			"translation":[
				0,
				0,
				-7.759902000427246
			]
		},
		{
			"mesh":1,
			"name":"Rock",
			"scale":[
				1,
				1.8930003643035889,
				1
			],
			"translation":[
				0,
				0,
				-7.759902000427246
			]
		},
		{
			"mesh":2,
			"name":"Rock.002",
			"translation":[
				0,
				0,
				-7.759902000427246
			]
		},
		{
			"mesh":3,
			"name":"Rock.001",
			"translation":[
				0,
				0,
				-7.759902000427246
			]
		},
		{
			"mesh":4,
			"name":"Mushroom",
			"scale":[
				0.10200614482164383,
				0.10200614482164383,
				0.10200614482164383
			],
			"translation":[
				0,
				0,
				-7.759902000427246
			]
		},
		{
			"mesh":5,
			"name":"Stalk",
			"scale":[
				0.12148195505142212,
				0.12148195505142212,
				0.12148195505142212
			],
			"translation":[
				0,
				0,
				-7.759902000427246
			]
		},
		{
			"mesh":6,
			"name":"Cylinder",
			"translation":[
				0,
				0,
				12.624213218688965
			]
		},
		{
			"name":"Cylinder.001",
			"translation":[
				0,
				0,
				-12.870251655578613
			]
		},
		{
			"mesh":7,
			"name":"Eyeball"
		}
	],
	"materials":[
		{
			"doubleSided":true,
			"name":"Mushroom",
			"pbrMetallicRoughness":{
				"baseColorTexture":{
					"index":0
				},
				"metallicFactor":0,
				"roughnessFactor":0.5
			}
		},
		{
			"doubleSided":true,
			"name":"Rock",
			"pbrMetallicRoughness":{
				"baseColorTexture":{
					"index":1
				},
				"metallicFactor":0,
				"roughnessFactor":0.5
			}
		},
		{
			"doubleSided":true,
			"extensions":{
				"KHR_materials_specular":{
					"specularColorFactor":[
						0.7842284818242208,
						0.7842284818242208,
						0.7842284818242208
					]
				},
				"KHR_materials_ior":{
					"ior":1.4500000476837158
				}
			},
			"name":"Red",
			"pbrMetallicRoughness":{
				"baseColorTexture":{
					"index":2
				},
				"metallicFactor":0,
				"roughnessFactor":0.31889766454696655
			}
		},
		{
			"doubleSided":true,
			"name":"Pillar",
			"pbrMetallicRoughness":{
				"baseColorTexture":{
					"index":3
				},
				"metallicFactor":0,
				"roughnessFactor":0.5
			}
		},
		{
			"doubleSided":true,
			"name":"EyeInner",
			"pbrMetallicRoughness":{
				"baseColorTexture":{
					"index":4
				},
				"metallicFactor":0,
				"roughnessFactor":0.5
			}
		},
		{
			"doubleSided":true,
			"name":"EyeMid",
			"pbrMetallicRoughness":{
				"baseColorTexture":{
					"index":5
				},
				"metallicFactor":0,
				"roughnessFactor":0.5
			}
		},
		{
			"doubleSided":true,
			"name":"Eyeball",
			"pbrMetallicRoughness":{
				"baseColorTexture":{
					"index":6
				},
				"metallicFactor":0,
				"roughnessFactor":0.5
			}
		}
	],
	"meshes":[
		{
			"name":"Cylinder.001",
			"primitives":[
				{
					"attributes":{
						"POSITION":0,
						"NORMAL":1,
						"TEXCOORD_0":2
					},
					"indices":3,
					"material":0
				}
			]
		},
		{
			"name":"Icosphere",
			"primitives":[
				{
					"attributes":{
						"POSITION":4,
						"NORMAL":5,
						"TEXCOORD_0":6,
						"TANGENT":7
					},
					"indices":8,
					"material":1
				}
			]
		},
		{
			"name":"Icosphere.001",
			"primitives":[
				{
					"attributes":{
						"POSITION":9,
						"NORMAL":10,
						"TEXCOORD_0":11,
						"TANGENT":12
					},
					"indices":13,
					"material":1
				}
			]
		},
		{
			"name":"Icosphere.002",
			"primitives":[
				{
					"attributes":{
						"POSITION":14,
						"NORMAL":15,
						"TEXCOORD_0":16
					},
					"indices":17,
					"material":1
				}
			]
		},
		{
			"name":"Sphere.002",
			"primitives":[
				{
					"attributes":{
						"POSITION":18,
						"NORMAL":19,
						"TEXCOORD_0":20
					},
					"indices":21,
					"material":2
				},
				{
					"attributes":{
						"POSITION":22,
						"NORMAL":23,
						"TEXCOORD_0":24
					},
					"indices":25,
					"material":0
				}
			]
		},
		{
			"name":"Cylinder.002",
			"primitives":[
				{
					"attributes":{
						"POSITION":26,
						"NORMAL":27,
						"TEXCOORD_0":28
					},
					"indices":29,
					"material":2
				}
			]
		},
		{
			"name":"Cylinder",
			"primitives":[
				{
					"attributes":{
						"POSITION":30,
						"NORMAL":31,
						"TEXCOORD_0":32
					},
					"indices":33,
					"material":3
				}
			]
		},
		{
			"name":"Sphere",
			"primitives":[
				{
					"attributes":{
						"POSITION":34,
						"NORMAL":35,
						"TEXCOORD_0":36,
						"TANGENT":37
					},
					"indices":38,
					"material":4
				},
				{
					"attributes":{
						"POSITION":39,
						"NORMAL":40,
						"TEXCOORD_0":41,
						"TANGENT":42
					},
					"indices":43,
					"material":5
				},
				{
					"attributes":{
						"POSITION":44,
						"NORMAL":45,
						"TEXCOORD_0":46,
						"TANGENT":47
					},
					"indices":48,
					"material":6
				}
			]
		}
	],
	"textures":[
		{
			"sampler":0,
			"source":0
		},
		{
			"sampler":0,
			"source":1
		},
		{
			"sampler":0,
			"source":2
		},
		{
			"sampler":0,
			"source":3
		},
		{
			"sampler":0,
			"source":4
		},
		{
			"sampler":0,
			"source":5
		},
		{
			"sampler":0,
			"source":6
		}
	],
	"images":[
		{
			"mimeType":"image/png",
			"name":"FUNGI.BMP",
			"uri":"../../../DE_ADJACENT/Textures/Foliage/FUNGI.BMP"
		},
		{
			"mimeType":"image/png",
			"name":"GRYCON1.BMP",
			"uri":"../../../DE_ADJACENT/Textures/Decoration/GRYCON1.BMP"
		},
		{
			"mimeType":"image/png",
			"name":"SILKBOU2.BMP",
			"uri":"../../../DE_ADJACENT/Textures/Foliage/SILKBOU2.BMP"
		},
		{
			"mimeType":"image/jpeg",
			"name":"TexturesCom_ConcreteWornPaint0087_3_S.jpg",
			"uri":"../../../DE_ADJACENT/Textures/Concrete/TexturesCom_ConcreteWornPaint0087_3_S.jpg"
		},
		{
			"mimeType":"image/png",
			"name":"853e7e4849374e41d0441a15256dce5e.png",
			"uri":"../../../DE_ADJACENT/Textures/Enemy/853e7e4849374e41d0441a15256dce5e.png"
		},
		{
			"mimeType":"image/png",
			"name":"TexturesCom_BronzeCopper0117_1_S.png",
			"uri":"../../../DE_ADJACENT/Textures/Enemy/TexturesCom_BronzeCopper0117_1_S.png"
		},
		{
			"mimeType":"image/jpeg",
			"name":"TexturesCom_PlasterColoured0047_1_seamless_S.jpg",
			"uri":"../../../DE_ADJACENT/Textures/Enemy/TexturesCom_PlasterColoured0047_1_seamless_S.jpg"
		}
	],
	"accessors":[
		{
			"bufferView":0,
			"componentType":5126,
			"count":188,
			"max":[
				0.8660253882408142,
				0.9130433201789856,
				1
			],
			"min":[
				-0.8660253882408142,
				-1,
				-12.763168334960938
			],
			"type":"VEC3"
		},
		{
			"bufferView":1,
			"componentType":5126,
			"count":188,
			"type":"VEC3"
		},
		{
			"bufferView":2,
			"componentType":5126,
			"count":188,
			"type":"VEC2"
		},
		{
			"bufferView":3,
			"componentType":5123,
			"count":312,
			"type":"SCALAR"
		},
		{
			"bufferView":4,
			"componentType":5126,
			"count":62,
			"max":[
				0.8252251148223877,
				0.5362445116043091,
				0.8506399989128113
			],
			"min":[
				-0.8414964079856873,
				-0.4472149908542633,
				-0.8506399989128113
			],
			"type":"VEC3"
		},
		{
			"bufferView":5,
			"componentType":5126,
			"count":62,
			"type":"VEC3"
		},
		{
			"bufferView":6,
			"componentType":5126,
			"count":62,
			"type":"VEC2"
		},
		{
			"bufferView":7,
			"componentType":5126,
			"count":62,
			"type":"VEC4"
		},
		{
			"bufferView":8,
			"componentType":5123,
			"count":78,
			"type":"SCALAR"
		},
		{
			"bufferView":9,
			"componentType":5126,
			"count":80,
			"max":[
				0.805976927280426,
				0.7334304451942444,
				0.8506399989128113
			],
			"min":[
				-0.8944249749183655,
				-0.4472149908542633,
				-0.8506399989128113
			],
			"type":"VEC3"
		},
		{
			"bufferView":10,
			"componentType":5126,
			"count":80,
			"type":"VEC3"
		},
		{
			"bufferView":11,
			"componentType":5126,
			"count":80,
			"type":"VEC2"
		},
		{
			"bufferView":12,
			"componentType":5126,
			"count":80,
			"type":"VEC4"
		},
		{
			"bufferView":13,
			"componentType":5123,
			"count":102,
			"type":"SCALAR"
		},
		{
			"bufferView":14,
			"componentType":5126,
			"count":99,
			"max":[
				0.805976927280426,
				0.610802412033081,
				0.8506399989128113
			],
			"min":[
				-0.8944249749183655,
				-0.4472149908542633,
				-0.8506399989128113
			],
			"type":"VEC3"
		},
		{
			"bufferView":15,
			"componentType":5126,
			"count":99,
			"type":"VEC3"
		},
		{
			"bufferView":16,
			"componentType":5126,
			"count":99,
			"type":"VEC2"
		},
		{
			"bufferView":17,
			"componentType":5123,
			"count":132,
			"type":"SCALAR"
		},
		{
			"bufferView":18,
			"componentType":5126,
			"count":1400,
			"max":[
				5.424373626708984,
				1.4162611961364746,
				6.981407165527344
			],
			"min":[
				-6.406151294708252,
				-3.5537915229797363,
				-6.407913684844971
			],
			"type":"VEC3"
		},
		{
			"bufferView":19,
			"componentType":5126,
			"count":1400,
			"type":"VEC3"
		},
		{
			"bufferView":20,
			"componentType":5126,
			"count":1400,
			"type":"VEC2"
		},
		{
			"bufferView":21,
			"componentType":5123,
			"count":1800,
			"type":"SCALAR"
		},
		{
			"bufferView":22,
			"componentType":5126,
			"count":137,
			"max":[
				7.940896034240723,
				-0.33378851413726807,
				10.208587646484375
			],
			"min":[
				-8.067445755004883,
				-5.766280174255371,
				-8.155117988586426
			],
			"type":"VEC3"
		},
		{
			"bufferView":23,
			"componentType":5126,
			"count":137,
			"type":"VEC3"
		},
		{
			"bufferView":24,
			"componentType":5126,
			"count":137,
			"type":"VEC2"
		},
		{
			"bufferView":25,
			"componentType":5123,
			"count":186,
			"type":"SCALAR"
		},
		{
			"bufferView":26,
			"componentType":5126,
			"count":688,
			"max":[
				8.944865226745605,
				25.072717666625977,
				7.5850019454956055
			],
			"min":[
				-6.358821392059326,
				-1,
				-6.392243385314941
			],
			"type":"VEC3"
		},
		{
			"bufferView":27,
			"componentType":5126,
			"count":688,
			"type":"VEC3"
		},
		{
			"bufferView":28,
			"componentType":5126,
			"count":688,
			"type":"VEC2"
		},
		{
			"bufferView":29,
			"componentType":5123,
			"count":1128,
			"type":"SCALAR"
		},
		{
			"bufferView":30,
			"componentType":5126,
			"count":265,
			"max":[
				1,
				5.892096519470215,
				1
			],
			"min":[
				-1,
				-1,
				-5.456545352935791
			],
			"type":"VEC3"
		},
		{
			"bufferView":31,
			"componentType":5126,
			"count":265,
			"type":"VEC3"
		},
		{
			"bufferView":32,
			"componentType":5126,
			"count":265,
			"type":"VEC2"
		},
		{
			"bufferView":33,
			"componentType":5123,
			"count":411,
			"type":"SCALAR"
		},
		{
			"bufferView":34,
			"componentType":5126,
			"count":27,
			"max":[
				0.21450316905975342,
				0.8751248717308044,
				0.1986495852470398
			],
			"min":[
				-0.20818686485290527,
				0.8595700860023499,
				-0.21139846742153168
			],
			"type":"VEC3"
		},
		{
			"bufferView":35,
			"componentType":5126,
			"count":27,
			"type":"VEC3"
		},
		{
			"bufferView":36,
			"componentType":5126,
			"count":27,
			"type":"VEC2"
		},
		{
			"bufferView":37,
			"componentType":5126,
			"count":27,
			"type":"VEC4"
		},
		{
			"bufferView":38,
			"componentType":5123,
			"count":27,
			"type":"SCALAR"
		},
		{
			"bufferView":39,
			"componentType":5126,
			"count":36,
			"max":[
				0.46472233533859253,
				0.8622267246246338,
				0.4365170896053314
			],
			"min":[
				-0.4574744701385498,
				0.8045361638069153,
				-0.46453171968460083
			],
			"type":"VEC3"
		},
		{
			"bufferView":40,
			"componentType":5126,
			"count":36,
			"type":"VEC3"
		},
		{
			"bufferView":41,
			"componentType":5126,
			"count":36,
			"type":"VEC2"
		},
		{
			"bufferView":42,
			"componentType":5126,
			"count":36,
			"type":"VEC4"
		},
		{
			"bufferView":43,
			"componentType":5123,
			"count":54,
			"type":"SCALAR"
		},
		{
			"bufferView":44,
			"componentType":5126,
			"count":135,
			"max":[
				0.9848076701164246,
				0.8075845837593079,
				0.939692497253418
			],
			"min":[
				-0.9848076105117798,
				-1,
				-0.9999998211860657
			],
			"type":"VEC3"
		},
		{
			"bufferView":45,
			"componentType":5126,
			"count":135,
			"type":"VEC3"
		},
		{
			"bufferView":46,
			"componentType":5126,
			"count":135,
			"type":"VEC2"
		},
		{
			"bufferView":47,
			"componentType":5126,
			"count":135,
			"type":"VEC4"
		},
		{
			"bufferView":48,
			"componentType":5123,
			"count":189,
			"type":"SCALAR"
		}
	],
	"bufferViews":[
		{
			"buffer":0,
			"byteLength":2256,
			"byteOffset":0,
			"target":34962
		},
		{
			"buffer":0,
			"byteLength":2256,
			"byteOffset":2256,
			"target":34962
		},
		{
			"buffer":0,
			"byteLength":1504,
			"byteOffset":4512,
			"target":34962
		},
		{
			"buffer":0,
			"byteLength":624,
			"byteOffset":6016,
			"target":34963
		},
		{
			"buffer":0,
			"byteLength":744,
			"byteOffset":6640,
			"target":34962
		},
		{
			"buffer":0,
			"byteLength":744,
			"byteOffset":7384,
			"target":34962
		},
		{
			"buffer":0,
			"byteLength":496,
			"byteOffset":8128,
			"target":34962
		},
		{
			"buffer":0,
			"byteLength":992,
			"byteOffset":8624,
			"target":34962
		},
		{
			"buffer":0,
			"byteLength":156,
			"byteOffset":9616,
			"target":34963
		},
		{
			"buffer":0,
			"byteLength":960,
			"byteOffset":9772,
			"target":34962
		},
		{
			"buffer":0,
			"byteLength":960,
			"byteOffset":10732,
			"target":34962
		},
		{
			"buffer":0,
			"byteLength":640,
			"byteOffset":11692,
			"target":34962
		},
		{
			"buffer":0,
			"byteLength":1280,
			"byteOffset":12332,
			"target":34962
		},
		{
			"buffer":0,
			"byteLength":204,
			"byteOffset":13612,
			"target":34963
		},
		{
			"buffer":0,
			"byteLength":1188,
			"byteOffset":13816,
			"target":34962
		},
		{
			"buffer":0,
			"byteLength":1188,
			"byteOffset":15004,
			"target":34962
		},
		{
			"buffer":0,
			"byteLength":792,
			"byteOffset":16192,
			"target":34962
		},
		{
			"buffer":0,
			"byteLength":264,
			"byteOffset":16984,
			"target":34963
		},
		{
			"buffer":0,
			"byteLength":16800,
			"byteOffset":17248,
			"target":34962
		},
		{
			"buffer":0,
			"byteLength":16800,
			"byteOffset":34048,
			"target":34962
		},
		{
			"buffer":0,
			"byteLength":11200,
			"byteOffset":50848,
			"target":34962
		},
		{
			"buffer":0,
			"byteLength":3600,
			"byteOffset":62048,
			"target":34963
		},
		{
			"buffer":0,
			"byteLength":1644,
			"byteOffset":65648,
			"target":34962
		},
		{
			"buffer":0,
			"byteLength":1644,
			"byteOffset":67292,
			"target":34962
		},
		{
			"buffer":0,
			"byteLength":1096,
			"byteOffset":68936,
			"target":34962
		},
		{
			"buffer":0,
			"byteLength":372,
			"byteOffset":70032,
			"target":34963
		},
		{
			"buffer":0,
			"byteLength":8256,
			"byteOffset":70404,
			"target":34962
		},
		{
			"buffer":0,
			"byteLength":8256,
			"byteOffset":78660,
			"target":34962
		},
		{
			"buffer":0,
			"byteLength":5504,
			"byteOffset":86916,
			"target":34962
		},
		{
			"buffer":0,
			"byteLength":2256,
			"byteOffset":92420,
			"target":34963
		},
		{
			"buffer":0,
			"byteLength":3180,
			"byteOffset":94676,
			"target":34962
		},
		{
			"buffer":0,
			"byteLength":3180,
			"byteOffset":97856,
			"target":34962
		},
		{
			"buffer":0,
			"byteLength":2120,
			"byteOffset":101036,
			"target":34962
		},
		{
			"buffer":0,
			"byteLength":822,
			"byteOffset":103156,
			"target":34963
		},
		{
			"buffer":0,
			"byteLength":324,
			"byteOffset":103980,
			"target":34962
		},
		{
			"buffer":0,
			"byteLength":324,
			"byteOffset":104304,
			"target":34962
		},
		{
			"buffer":0,
			"byteLength":216,
			"byteOffset":104628,
			"target":34962
		},
		{
			"buffer":0,
			"byteLength":432,
			"byteOffset":104844,
			"target":34962
		},
		{
			"buffer":0,
			"byteLength":54,
			"byteOffset":105276,
			"target":34963
		},
		{
			"buffer":0,
			"byteLength":432,
			"byteOffset":105332,
			"target":34962
		},
		{
			"buffer":0,
			"byteLength":432,
			"byteOffset":105764,
			"target":34962
		},
		{
			"buffer":0,
			"byteLength":288,
			"byteOffset":106196,
			"target":34962
		},
		{
			"buffer":0,
			"byteLength":576,
			"byteOffset":106484,
			"target":34962
		},
		{
			"buffer":0,
			"byteLength":108,
			"byteOffset":107060,
			"target":34963
		},
		{
			"buffer":0,
			"byteLength":1620,
			"byteOffset":107168,
			"target":34962
		},
		{
			"buffer":0,
			"byteLength":1620,
			"byteOffset":108788,
			"target":34962
		},
		{
			"buffer":0,
			"byteLength":1080,
			"byteOffset":110408,
			"target":34962
		},
		{
			"buffer":0,
			"byteLength":2160,
			"byteOffset":111488,
			"target":34962
		},
		{
			"buffer":0,
			"byteLength":378,
			"byteOffset":113648,
			"target":34963
		}
	],
	"samplers":[
		{
			"magFilter":9729,
			"minFilter":9987
		}
	],
	"buffers":[
		{
			"byteLength":114028,
			"uri":"OutsideDecor-bb97e061ed72ceb3a173d7aebf9d195e.bin"
		}
	]
}
