{
	"asset":{
		"generator":"Khronos glTF Blender I/O v3.6.27",
		"version":"2.0"
	},
	"scene":0,
	"scenes":[
		{
			"name":"Scene",
			"nodes":[
				0
			]
		}
	],
	"nodes":[
		{
			"mesh":0,
			"name":"Grid"
		}
	],
	"materials":[
		{
			"doubleSided":true,
			"name":"Concrete",
			"pbrMetallicRoughness":{
				"baseColorTexture":{
					"index":0
				},
				"metallicFactor":0,
				"roughnessFactor":0.5
			}
		},
		{
			"doubleSided":true,
			"name":"concrete2",
			"pbrMetallicRoughness":{
				"baseColorTexture":{
					"index":1
				},
				"metallicFactor":0,
				"roughnessFactor":0.5
			}
		}
	],
	"meshes":[
		{
			"name":"Grid",
			"primitives":[
				{
					"attributes":{
						"POSITION":0,
						"NORMAL":1,
						"TEXCOORD_0":2,
						"TANGENT":3
					},
					"indices":4,
					"material":0
				},
				{
					"attributes":{
						"POSITION":5,
						"NORMAL":6,
						"TEXCOORD_0":7,
						"TANGENT":8
					},
					"indices":9,
					"material":1
				}
			]
		}
	],
	"textures":[
		{
			"sampler":0,
			"source":0
		},
		{
			"sampler":0,
			"source":1
		}
	],
	"images":[
		{
			"mimeType":"image/jpeg",
			"name":"concrete_long.jpg",
			"uri":"../../../DE_ADJACENT/Textures/Concrete/concrete_long.jpg"
		},
		{
			"mimeType":"image/jpeg",
			"name":"TexturesCom_ConcreteDirty0324_1_seamless_S.jpg",
			"uri":"../../../DE_ADJACENT/Textures/Concrete/TexturesCom_ConcreteDirty0324_1_seamless_S.jpg"
		}
	],
	"accessors":[
		{
			"bufferView":0,
			"componentType":5126,
			"count":280,
			"max":[
				142.34805297851562,
				15.489497184753418,
				262.00555419921875
			],
			"min":[
				-21.287872314453125,
				-59.42034912109375,
				-262.00555419921875
			],
			"type":"VEC3"
		},
		{
			"bufferView":1,
			"componentType":5126,
			"count":280,
			"type":"VEC3"
		},
		{
			"bufferView":2,
			"componentType":5126,
			"count":280,
			"type":"VEC2"
		},
		{
			"bufferView":3,
			"componentType":5126,
			"count":280,
			"type":"VEC4"
		},
		{
			"bufferView":4,
			"componentType":5123,
			"count":516,
			"type":"SCALAR"
		},
		{
			"bufferView":5,
			"componentType":5126,
			"count":137,
			"max":[
				211.25778198242188,
				24.96819305419922,
				30.051586151123047
			],
			"min":[
				142.33094787597656,
				-25.03180694580078,
				-30.176258087158203
			],
			"type":"VEC3"
		},
		{
			"bufferView":6,
			"componentType":5126,
			"count":137,
			"type":"VEC3"
		},
		{
			"bufferView":7,
			"componentType":5126,
			"count":137,
			"type":"VEC2"
		},
		{
			"bufferView":8,
			"componentType":5126,
			"count":137,
			"type":"VEC4"
		},
		{
			"bufferView":9,
			"componentType":5123,
			"count":228,
			"type":"SCALAR"
		}
	],
	"bufferViews":[
		{
			"buffer":0,
			"byteLength":3360,
			"byteOffset":0,
			"target":34962
		},
		{
			"buffer":0,
			"byteLength":3360,
			"byteOffset":3360,
			"target":34962
		},
		{
			"buffer":0,
			"byteLength":2240,
			"byteOffset":6720,
			"target":34962
		},
		{
			"buffer":0,
			"byteLength":4480,
			"byteOffset":8960,
			"target":34962
		},
		{
			"buffer":0,
			"byteLength":1032,
			"byteOffset":13440,
			"target":34963
		},
		{
			"buffer":0,
			"byteLength":1644,
			"byteOffset":14472,
			"target":34962
		},
		{
			"buffer":0,
			"byteLength":1644,
			"byteOffset":16116,
			"target":34962
		},
		{
			"buffer":0,
			"byteLength":1096,
			"byteOffset":17760,
			"target":34962
		},
		{
			"buffer":0,
			"byteLength":2192,
			"byteOffset":18856,
			"target":34962
		},
		{
			"buffer":0,
			"byteLength":456,
			"byteOffset":21048,
			"target":34963
		}
	],
	"samplers":[
		{
			"magFilter":9729,
			"minFilter":9987
		}
	],
	"buffers":[
		{
			"byteLength":21504,
			"uri":"outside-64c44dcf4c7c8d8c165e96e5688caa5e.bin"
		}
	]
}
